%TF.GenerationSoftware,KiCad,Pcbnew,(6.0.4)*%
%TF.CreationDate,2022-04-30T16:21:15-04:00*%
%TF.ProjectId,dpp-architecture,6470702d-6172-4636-9869-746563747572,1.0*%
%TF.SameCoordinates,Original*%
%TF.FileFunction,Soldermask,Top*%
%TF.FilePolarity,Negative*%
%FSLAX46Y46*%
G04 Gerber Fmt 4.6, Leading zero omitted, Abs format (unit mm)*
G04 Created by KiCad (PCBNEW (6.0.4)) date 2022-04-30 16:21:15*
%MOMM*%
%LPD*%
G01*
G04 APERTURE LIST*
G04 Aperture macros list*
%AMRoundRect*
0 Rectangle with rounded corners*
0 $1 Rounding radius*
0 $2 $3 $4 $5 $6 $7 $8 $9 X,Y pos of 4 corners*
0 Add a 4 corners polygon primitive as box body*
4,1,4,$2,$3,$4,$5,$6,$7,$8,$9,$2,$3,0*
0 Add four circle primitives for the rounded corners*
1,1,$1+$1,$2,$3*
1,1,$1+$1,$4,$5*
1,1,$1+$1,$6,$7*
1,1,$1+$1,$8,$9*
0 Add four rect primitives between the rounded corners*
20,1,$1+$1,$2,$3,$4,$5,0*
20,1,$1+$1,$4,$5,$6,$7,0*
20,1,$1+$1,$6,$7,$8,$9,0*
20,1,$1+$1,$8,$9,$2,$3,0*%
G04 Aperture macros list end*
%TA.AperFunction,Profile*%
%ADD10C,0.150000*%
%TD*%
%ADD11C,3.000000*%
%ADD12R,1.700000X1.700000*%
%ADD13O,1.700000X1.700000*%
%ADD14RoundRect,0.250000X-0.262500X-0.450000X0.262500X-0.450000X0.262500X0.450000X-0.262500X0.450000X0*%
%ADD15R,2.400000X2.400000*%
%ADD16C,2.400000*%
%ADD17R,1.910000X1.170000*%
%ADD18RoundRect,0.250000X-0.450000X0.350000X-0.450000X-0.350000X0.450000X-0.350000X0.450000X0.350000X0*%
%ADD19R,1.200000X0.900000*%
%ADD20C,3.500000*%
%ADD21R,1.800000X1.717500*%
%ADD22O,1.800000X1.717500*%
%ADD23R,6.200000X5.700000*%
%ADD24R,0.650000X1.560000*%
%ADD25RoundRect,0.250000X-0.475000X0.250000X-0.475000X-0.250000X0.475000X-0.250000X0.475000X0.250000X0*%
%ADD26RoundRect,0.250000X-0.250000X-0.475000X0.250000X-0.475000X0.250000X0.475000X-0.250000X0.475000X0*%
G04 APERTURE END LIST*
D10*
X205740000Y-58420000D02*
X109220000Y-58420000D01*
X205740000Y-134620000D02*
G75*
G03*
X213360000Y-127000000I0J7620000D01*
G01*
X109220000Y-58420000D02*
G75*
G03*
X101600000Y-66040000I0J-7620000D01*
G01*
X213360000Y-66040000D02*
G75*
G03*
X205740000Y-58420000I-7620000J0D01*
G01*
X101600000Y-127000000D02*
G75*
G03*
X109220000Y-134620000I7620000J0D01*
G01*
X101600000Y-66040000D02*
X101600000Y-127000000D01*
X109220000Y-134620000D02*
X205740000Y-134620000D01*
X213360000Y-66040000D02*
X213360000Y-127000000D01*
D11*
%TO.C,J1*%
X114300000Y-88520000D03*
X114300000Y-79020000D03*
%TD*%
%TO.C,J4*%
X200660000Y-98680000D03*
X200660000Y-89180000D03*
%TD*%
%TO.C,J2*%
X114300000Y-113640000D03*
X114300000Y-104140000D03*
%TD*%
D12*
%TO.C,J3*%
X134620000Y-109220000D03*
D13*
X134620000Y-106680000D03*
X134620000Y-104140000D03*
%TD*%
D14*
%TO.C,R3*%
X170895000Y-86360000D03*
X172720000Y-86360000D03*
%TD*%
D15*
%TO.C,C1*%
X134900000Y-78740000D03*
D16*
X134900000Y-86240000D03*
%TD*%
D17*
%TO.C,T1*%
X159805509Y-97935000D03*
X159805509Y-95435000D03*
X159805509Y-92935000D03*
X159805509Y-90435000D03*
X167935509Y-90435000D03*
X167935509Y-92935000D03*
X167935509Y-95435000D03*
X167935509Y-97935000D03*
%TD*%
D18*
%TO.C,R2*%
X147320000Y-108220000D03*
X147320000Y-110220000D03*
%TD*%
D19*
%TO.C,D1*%
X147320000Y-94870000D03*
X147320000Y-98170000D03*
%TD*%
D20*
%TO.C,H3*%
X205740000Y-127000000D03*
%TD*%
D14*
%TO.C,R1*%
X146407500Y-104140000D03*
X148232500Y-104140000D03*
%TD*%
%TO.C,R4*%
X171807500Y-104140000D03*
X173632500Y-104140000D03*
%TD*%
D21*
%TO.C,Q1*%
X152665000Y-104390000D03*
D22*
X152665000Y-106680000D03*
X152665000Y-108970000D03*
D23*
X160098333Y-106680000D03*
%TD*%
D15*
%TO.C,C4*%
X180340000Y-91440000D03*
D16*
X180340000Y-98940000D03*
%TD*%
D20*
%TO.C,H1*%
X109220000Y-66040000D03*
%TD*%
%TO.C,H4*%
X205740000Y-66040000D03*
%TD*%
D19*
%TO.C,D2*%
X152400000Y-94870000D03*
X152400000Y-98170000D03*
%TD*%
D24*
%TO.C,U1*%
X141290000Y-108030000D03*
X142240000Y-108030000D03*
X143190000Y-108030000D03*
X143190000Y-105330000D03*
X141290000Y-105330000D03*
%TD*%
D25*
%TO.C,C3*%
X152400000Y-90490000D03*
X152400000Y-92390000D03*
%TD*%
D26*
%TO.C,C2*%
X140340000Y-101600000D03*
X142240000Y-101600000D03*
%TD*%
D20*
%TO.C,H2*%
X109220000Y-127000000D03*
%TD*%
M02*
